<svg xmlns="http://www.w3.org/2000/svg" viewBox="0 0 640 360" role="img" aria-labelledby="title desc">
  <title id="title">일상의 취향 일러스트</title><desc id="desc">피아노, 게임패드, 자동차가 함께 있는 일러스트</desc>
  <rect width="640" height="360" rx="36" fill="#f4fff8"/>
  <rect x="54" y="92" width="222" height="150" rx="20" fill="#fff" stroke="#dce8e1" stroke-width="6"/>
  <rect x="76" y="116" width="178" height="34" rx="8" fill="#243447"/>
  <g fill="#fff"><rect x="84" y="116" width="18" height="75"/><rect x="110" y="116" width="18" height="75"/><rect x="136" y="116" width="18" height="75"/><rect x="162" y="116" width="18" height="75"/><rect x="188" y="116" width="18" height="75"/><rect x="214" y="116" width="18" height="75"/></g>
  <path d="M384 114c42 0 76 28 76 62 0 30-22 53-51 59l-22 36-22-36c-33-4-58-29-58-59 0-34 35-62 77-62z" fill="#03c75a"/>
  <circle cx="355" cy="175" r="11" fill="#fff"/><circle cx="412" cy="175" r="11" fill="#fff"/>
  <path d="M355 149v52M329 175h52" stroke="#fff" stroke-width="9" stroke-linecap="round"/>
  <path d="M406 165h22M417 154v22" stroke="#fff" stroke-width="9" stroke-linecap="round"/>
  <path d="M493 247h83l23 45H470z" fill="#4a90e2"/><rect x="487" y="260" width="92" height="38" rx="12" fill="#4a90e2"/>
  <circle cx="503" cy="302" r="18" fill="#243447"/><circle cx="566" cy="302" r="18" fill="#243447"/>
  <path d="M512 247l13-30h39l18 30" fill="none" stroke="#243447" stroke-width="9" stroke-linejoin="round"/>
</svg>
