<svg xmlns="http://www.w3.org/2000/svg" viewBox="0 0 480 360" role="img" aria-labelledby="title desc">
  <title id="title">한동균 프로필 일러스트</title>
  <desc id="desc">초록색 배경 앞에서 커피를 들고 있는 인물 일러스트</desc>
  <defs>
    <linearGradient id="bg" x1="0" x2="1" y1="0" y2="1">
      <stop offset="0" stop-color="#e9fff2"/>
      <stop offset="1" stop-color="#b8f4cd"/>
    </linearGradient>
  </defs>
  <rect width="480" height="360" rx="36" fill="url(#bg)"/>
  <circle cx="240" cy="132" r="70" fill="#ffd8bf"/>
  <path d="M172 132c0-54 32-92 72-92 43 0 76 34 76 83-18-17-39-29-67-33-28 18-52 27-81 30z" fill="#243447"/>
  <path d="M132 330c10-90 52-134 108-134s98 44 108 134" fill="#03c75a"/>
  <rect x="302" y="224" width="82" height="70" rx="12" fill="#fff" stroke="#243447" stroke-width="8"/>
  <path d="M384 240h18c20 0 20 35 0 35h-18" fill="none" stroke="#243447" stroke-width="8"/>
  <path d="M199 151c13 11 27 16 41 16s28-5 41-16" fill="none" stroke="#b96a56" stroke-width="6" stroke-linecap="round"/>
  <circle cx="215" cy="130" r="5" fill="#243447"/>
  <circle cx="268" cy="130" r="5" fill="#243447"/>
  <circle cx="69" cy="65" r="24" fill="#fff" opacity=".75"/>
  <circle cx="418" cy="78" r="14" fill="#fff" opacity=".8"/>
</svg>
